REM DIRINDEX 1\2\4\8,1\2\4\9,1\2\4\10,1\2\5\11,1\2\5\12,1\2\5\13,1\2\5\14,1\2\5\15,1\3\6\16,1\3\6\17,1\3\6\18,1\3\7\19,1\3\7\20,1\3\7\21,1\3\7\22,1\3\7\23
REM DIRNAME "folder01","folder02","folder03","folder04","folder05","folder06","folder07","folder08","folder09","folder10","folder11","folder12","folder13","folder14","folder15","folder16","folder17","folder18","folder19","folder20","folder21","folder22","folder23"
TITLE ""
FILE "LR_black_phrase_E_A02.mp3" MP3
  TRACK 01 AUDIO
    TITLE "0:"
    INDEX 01 00:00:00
  TRACK 02 AUDIO
    TITLE "16:cjc171_08091"
    INDEX 01 00:00:18
  TRACK 03 AUDIO
    TITLE "0:"
    INDEX 01 00:01:43
  TRACK 04 AUDIO
    TITLE "17:cjc171_08092"
    INDEX 01 00:01:72
  TRACK 05 AUDIO
    TITLE "0:"
    INDEX 01 00:04:14
  TRACK 06 AUDIO
    TITLE "18:cjc171_08093"
    INDEX 01 00:04:67
  TRACK 07 AUDIO
    TITLE "0:"
    INDEX 01 00:07:08
  TRACK 08 AUDIO
    TITLE "16:cjc171_08094"
    INDEX 01 00:08:04
  TRACK 09 AUDIO
    TITLE "0:"
    INDEX 01 00:09:09
  TRACK 10 AUDIO
    TITLE "17:cjc171_08095"
    INDEX 01 00:09:39
  TRACK 11 AUDIO
    TITLE "0:"
    INDEX 01 00:11:41
  TRACK 12 AUDIO
    TITLE "18:cjc171_08096"
    INDEX 01 00:12:19
  TRACK 13 AUDIO
    TITLE "0:"
    INDEX 01 00:14:22
  TRACK 14 AUDIO
    TITLE "16:cjc171_08097"
    INDEX 01 00:15:27
  TRACK 15 AUDIO
    TITLE "0:"
    INDEX 01 00:16:52
  TRACK 16 AUDIO
    TITLE "17:cjc171_08098"
    INDEX 01 00:17:07
  TRACK 17 AUDIO
    TITLE "0:"
    INDEX 01 00:19:17
  TRACK 18 AUDIO
    TITLE "18:cjc171_08099"
    INDEX 01 00:19:74
  TRACK 19 AUDIO
    TITLE "0:"
    INDEX 01 00:22:10
  TRACK 20 AUDIO
    TITLE "16:cjc171_08100"
    INDEX 01 00:23:17
  TRACK 21 AUDIO
    TITLE "0:"
    INDEX 01 00:24:28
  TRACK 22 AUDIO
    TITLE "17:cjc171_08101"
    INDEX 01 00:24:70
  TRACK 23 AUDIO
    TITLE "0:"
    INDEX 01 00:27:01
  TRACK 24 AUDIO
    TITLE "18:cjc171_08102"
    INDEX 01 00:27:58
  TRACK 25 AUDIO
    TITLE "0:"
    INDEX 01 00:29:65
  TRACK 26 AUDIO
    TITLE "16:cjc171_08103"
    INDEX 01 00:30:72
  TRACK 27 AUDIO
    TITLE "0:"
    INDEX 01 00:32:16
  TRACK 28 AUDIO
    TITLE "17:cjc171_08104"
    INDEX 01 00:32:46
  TRACK 29 AUDIO
    TITLE "0:"
    INDEX 01 00:34:27
  TRACK 30 AUDIO
    TITLE "18:cjc171_08105"
    INDEX 01 00:35:09
  TRACK 31 AUDIO
    TITLE "0:"
    INDEX 01 00:36:63
  TRACK 32 AUDIO
    TITLE "16:cjc171_08106"
    INDEX 01 00:37:70
  TRACK 33 AUDIO
    TITLE "0:"
    INDEX 01 00:39:28
  TRACK 34 AUDIO
    TITLE "17:cjc171_08107"
    INDEX 01 00:39:42
  TRACK 35 AUDIO
    TITLE "0:"
    INDEX 01 00:41:74
  TRACK 36 AUDIO
    TITLE "18:cjc171_08108"
    INDEX 01 00:42:46
  TRACK 37 AUDIO
    TITLE "0:"
    INDEX 01 00:45:01
  TRACK 38 AUDIO
    TITLE "16:cjc171_08109"
    INDEX 01 00:46:08
  TRACK 39 AUDIO
    TITLE "0:"
    INDEX 01 00:47:27
  TRACK 40 AUDIO
    TITLE "17:cjc171_08110"
    INDEX 01 00:47:55
  TRACK 41 AUDIO
    TITLE "0:"
    INDEX 01 00:49:50
  TRACK 42 AUDIO
    TITLE "18:cjc171_08111"
    INDEX 01 00:50:30
  TRACK 43 AUDIO
    TITLE "0:"
    INDEX 01 00:52:25
  TRACK 44 AUDIO
    TITLE "16:cjc171_08112"
    INDEX 01 00:53:30
  TRACK 45 AUDIO
    TITLE "0:"
    INDEX 01 00:54:61
  TRACK 46 AUDIO
    TITLE "17:cjc171_08113"
    INDEX 01 00:55:17
  TRACK 47 AUDIO
    TITLE "0:"
    INDEX 01 00:58:04
  TRACK 48 AUDIO
    TITLE "18:cjc171_08114"
    INDEX 01 00:58:57
  TRACK 49 AUDIO
    TITLE "0:"
    INDEX 01 01:01:43
  TRACK 50 AUDIO
    TITLE "16:cjc171_08115"
    INDEX 01 01:02:47
  TRACK 51 AUDIO
    TITLE "0:"
    INDEX 01 01:03:62
  TRACK 52 AUDIO
    TITLE "17:cjc171_08116"
    INDEX 01 01:04:14
  TRACK 53 AUDIO
    TITLE "0:"
    INDEX 01 01:06:43
  TRACK 54 AUDIO
    TITLE "18:cjc171_08117"
    INDEX 01 01:07:18
  TRACK 55 AUDIO
    TITLE "0:"
    INDEX 01 01:09:47
  TRACK 56 AUDIO
    TITLE "16:cjc171_08118"
    INDEX 01 01:10:50
  TRACK 57 AUDIO
    TITLE "0:"
    INDEX 01 01:12:10
  TRACK 58 AUDIO
    TITLE "17:cjc171_08119"
    INDEX 01 01:12:39
  TRACK 59 AUDIO
    TITLE "0:"
    INDEX 01 01:15:14
  TRACK 60 AUDIO
    TITLE "18:cjc171_08120"
    INDEX 01 01:15:67
  TRACK 61 AUDIO
    TITLE "0:"
    INDEX 01 01:18:42
  TRACK 62 AUDIO
    TITLE "16:cjc171_08121"
    INDEX 01 01:19:45
  TRACK 63 AUDIO
    TITLE "0:"
    INDEX 01 01:20:58
  TRACK 64 AUDIO
    TITLE "17:cjc171_08122"
    INDEX 01 01:21:03
  TRACK 65 AUDIO
    TITLE "0:"
    INDEX 01 01:23:43
  TRACK 66 AUDIO
    TITLE "18:cjc171_08123"
    INDEX 01 01:24:11
  TRACK 67 AUDIO
    TITLE "0:"
    INDEX 01 01:26:49
  TRACK 68 AUDIO
    TITLE "16:cjc171_08124"
    INDEX 01 01:27:51
  TRACK 69 AUDIO
    TITLE "0:"
    INDEX 01 01:29:00
  TRACK 70 AUDIO
    TITLE "17:cjc171_08125"
    INDEX 01 01:29:28
  TRACK 71 AUDIO
    TITLE "0:"
    INDEX 01 01:31:21
  TRACK 72 AUDIO
    TITLE "18:cjc171_08126"
    INDEX 01 01:32:01
  TRACK 73 AUDIO
    TITLE "0:"
    INDEX 01 01:33:69
  TRACK 74 AUDIO
    TITLE "16:cjc171_08127"
    INDEX 01 01:34:74
  TRACK 75 AUDIO
    TITLE "0:"
    INDEX 01 01:36:08
  TRACK 76 AUDIO
    TITLE "17:cjc171_08128"
    INDEX 01 01:36:38
  TRACK 77 AUDIO
    TITLE "0:"
    INDEX 01 01:37:72
  TRACK 78 AUDIO
    TITLE "18:cjc171_08129"
    INDEX 01 01:38:52
  TRACK 79 AUDIO
    TITLE "0:"
    INDEX 01 01:40:12
  TRACK 80 AUDIO
    TITLE "16:cjc171_08130"
    INDEX 01 01:41:17
  TRACK 81 AUDIO
    TITLE "0:"
    INDEX 01 01:42:31
  TRACK 82 AUDIO
    TITLE "17:cjc171_08131"
    INDEX 01 01:42:60
  TRACK 83 AUDIO
    TITLE "0:"
    INDEX 01 01:45:37
  TRACK 84 AUDIO
    TITLE "18:cjc171_08132"
    INDEX 01 01:46:18
  TRACK 85 AUDIO
    TITLE "0:"
    INDEX 01 01:48:68
  TRACK 86 AUDIO
    TITLE "16:cjc171_08133"
    INDEX 01 01:50:08
  TRACK 87 AUDIO
    TITLE "0:"
    INDEX 01 01:51:33
  TRACK 88 AUDIO
    TITLE "17:cjc171_08134"
    INDEX 01 01:51:65
  TRACK 89 AUDIO
    TITLE "0:"
    INDEX 01 01:53:62
  TRACK 90 AUDIO
    TITLE "18:cjc171_08135"
    INDEX 01 01:54:42
  TRACK 91 AUDIO
    TITLE "0:"
    INDEX 01 01:56:40
  TRACK 92 AUDIO
    TITLE "16:cjc171_08136"
    INDEX 01 01:57:44
  TRACK 93 AUDIO
    TITLE "0:"
    INDEX 01 01:58:59
  TRACK 94 AUDIO
    TITLE "17:cjc171_08137"
    INDEX 01 01:59:13
  TRACK 95 AUDIO
    TITLE "0:"
    INDEX 01 02:01:18
  TRACK 96 AUDIO
    TITLE "18:cjc171_08138"
    INDEX 01 02:01:71
  TRACK 97 AUDIO
    TITLE "0:"
    INDEX 01 02:04:01
  TRACK 98 AUDIO
    TITLE "16:cjc171_08139"
    INDEX 01 02:05:04
  TRACK 99 AUDIO
    TITLE "0:"
    INDEX 01 02:06:37
  TRACK 100 AUDIO
    TITLE "17:cjc171_08140"
    INDEX 01 02:06:64
  TRACK 101 AUDIO
    TITLE "0:"
    INDEX 01 02:08:59
  TRACK 102 AUDIO
    TITLE "18:cjc171_08141"
    INDEX 01 02:09:39
  TRACK 103 AUDIO
    TITLE "0:"
    INDEX 01 02:11:30
  TRACK 104 AUDIO
    TITLE "16:cjc171_08142"
    INDEX 01 02:12:34
  TRACK 105 AUDIO
    TITLE "0:"
    INDEX 01 02:13:43
  TRACK 106 AUDIO
    TITLE "17:cjc171_08143"
    INDEX 01 02:13:72
  TRACK 107 AUDIO
    TITLE "0:"
    INDEX 01 02:16:18
  TRACK 108 AUDIO
    TITLE "18:cjc171_08144"
    INDEX 01 02:16:69
  TRACK 109 AUDIO
    TITLE "0:"
    INDEX 01 02:19:14
  TRACK 110 AUDIO
    TITLE "16:cjc171_08145"
    INDEX 01 02:20:17
  TRACK 111 AUDIO
    TITLE "0:"
    INDEX 01 02:21:54
  TRACK 112 AUDIO
    TITLE "17:cjc171_08146"
    INDEX 01 02:22:08
  TRACK 113 AUDIO
    TITLE "0:"
    INDEX 01 02:24:03
  TRACK 114 AUDIO
    TITLE "18:cjc171_08147"
    INDEX 01 02:24:60
  TRACK 115 AUDIO
    TITLE "0:"
    INDEX 01 02:26:55
  TRACK 116 AUDIO
    TITLE "16:cjc171_08148"
    INDEX 01 02:27:59
  TRACK 117 AUDIO
    TITLE "0:"
    INDEX 01 02:28:68
  TRACK 118 AUDIO
    TITLE "17:cjc171_08149"
    INDEX 01 02:29:22
  TRACK 119 AUDIO
    TITLE "0:"
    INDEX 01 02:31:74
  TRACK 120 AUDIO
    TITLE "18:cjc171_08150"
    INDEX 01 02:32:52
  TRACK 121 AUDIO
    TITLE "0:"
    INDEX 01 02:35:29
  TRACK 122 AUDIO
    TITLE "16:cjc171_08151"
    INDEX 01 02:36:32
  TRACK 123 AUDIO
    TITLE "0:"
    INDEX 01 02:37:51
  TRACK 124 AUDIO
    TITLE "17:cjc171_08152"
    INDEX 01 02:38:06
  TRACK 125 AUDIO
    TITLE "0:"
    INDEX 01 02:40:04
  TRACK 126 AUDIO
    TITLE "18:cjc171_08153"
    INDEX 01 02:40:57
  TRACK 127 AUDIO
    TITLE "0:"
    INDEX 01 02:42:56
  TRACK 128 AUDIO
    TITLE "16:cjc171_08154"
    INDEX 01 02:43:60
  TRACK 129 AUDIO
    TITLE "0:"
    INDEX 01 02:45:13
  TRACK 130 AUDIO
    TITLE "17:cjc171_08155"
    INDEX 01 02:45:37
  TRACK 131 AUDIO
    TITLE "0:"
    INDEX 01 02:47:69
  TRACK 132 AUDIO
    TITLE "18:cjc171_08156"
    INDEX 01 02:48:43
  TRACK 133 AUDIO
    TITLE "0:"
    INDEX 01 02:51:00
  TRACK 134 AUDIO
    TITLE "16:cjc171_08157"
    INDEX 01 02:52:04
  TRACK 135 AUDIO
    TITLE "0:"
    INDEX 01 02:53:25
  TRACK 136 AUDIO
    TITLE "17:cjc171_08158"
    INDEX 01 02:53:52
  TRACK 137 AUDIO
    TITLE "0:"
    INDEX 01 02:56:70
  TRACK 138 AUDIO
    TITLE "18:cjc171_08159"
    INDEX 01 02:57:48
  TRACK 139 AUDIO
    TITLE "0:"
    INDEX 01 03:00:66
  TRACK 140 AUDIO
    TITLE "16:cjc171_08160"
    INDEX 01 03:01:67
  TRACK 141 AUDIO
    TITLE "0:"
    INDEX 01 03:03:19
  TRACK 142 AUDIO
    TITLE "17:cjc171_08161"
    INDEX 01 03:03:41
  TRACK 143 AUDIO
    TITLE "0:"
    INDEX 01 03:06:08
  TRACK 144 AUDIO
    TITLE "18:cjc171_08162"
    INDEX 01 03:06:57
  TRACK 145 AUDIO
    TITLE "0:"
    INDEX 01 03:09:24
  TRACK 146 AUDIO
    TITLE "16:cjc171_08163"
    INDEX 01 03:10:31
  TRACK 147 AUDIO
    TITLE "0:"
    INDEX 01 03:11:46
  TRACK 148 AUDIO
    TITLE "17:cjc171_08164"
    INDEX 01 03:12:01
  TRACK 149 AUDIO
    TITLE "0:"
    INDEX 01 03:14:01
  TRACK 150 AUDIO
    TITLE "18:cjc171_08165"
    INDEX 01 03:14:56
  TRACK 151 AUDIO
    TITLE "0:"
    INDEX 01 03:16:61
  TRACK 152 AUDIO
    TITLE "16:cjc171_08166"
    INDEX 01 03:17:64
  TRACK 153 AUDIO
    TITLE "0:"
    INDEX 01 03:19:01
  TRACK 154 AUDIO
    TITLE "17:cjc171_08167"
    INDEX 01 03:19:30
  TRACK 155 AUDIO
    TITLE "0:"
    INDEX 01 03:21:62
  TRACK 156 AUDIO
    TITLE "18:cjc171_08168"
    INDEX 01 03:22:42
  TRACK 157 AUDIO
    TITLE "0:"
    INDEX 01 03:24:74
  TRACK 158 AUDIO
    TITLE "16:cjc171_08169"
    INDEX 01 03:26:07
  TRACK 159 AUDIO
    TITLE "0:"
    INDEX 01 03:27:45
  TRACK 160 AUDIO
    TITLE "17:cjc171_08170"
    INDEX 01 03:28:00
  TRACK 161 AUDIO
    TITLE "0:"
    INDEX 01 03:30:28
  TRACK 162 AUDIO
    TITLE "18:cjc171_08171"
    INDEX 01 03:31:04
  TRACK 163 AUDIO
    TITLE "0:"
    INDEX 01 03:33:36
  TRACK 164 AUDIO
    TITLE "16:cjc171_08172"
    INDEX 01 03:34:33
  TRACK 165 AUDIO
    TITLE "0:"
    INDEX 01 03:35:60
  TRACK 166 AUDIO
    TITLE "17:cjc171_08173"
    INDEX 01 03:36:07
  TRACK 167 AUDIO
    TITLE "0:"
    INDEX 01 03:38:41
  TRACK 168 AUDIO
    TITLE "18:cjc171_08174"
    INDEX 01 03:39:11
  TRACK 169 AUDIO
    TITLE "0:"
    INDEX 01 03:41:49
  TRACK 170 AUDIO
    TITLE "16:cjc171_08175"
    INDEX 01 03:42:45
  TRACK 171 AUDIO
    TITLE "0:"
    INDEX 01 03:44:01
  TRACK 172 AUDIO
    TITLE "17:cjc171_08176"
    INDEX 01 03:44:22
  TRACK 173 AUDIO
    TITLE "0:"
    INDEX 01 03:46:43
  TRACK 174 AUDIO
    TITLE "18:cjc171_08177"
    INDEX 01 03:47:07
  TRACK 175 AUDIO
    TITLE "0:"
    INDEX 01 03:49:27
  TRACK 176 AUDIO
    TITLE "16:cjc171_08178"
    INDEX 01 03:50:31
  TRACK 177 AUDIO
    TITLE "0:"
    INDEX 01 03:51:42
  TRACK 178 AUDIO
    TITLE "17:cjc171_08179"
    INDEX 01 03:51:73
  TRACK 179 AUDIO
    TITLE "0:"
    INDEX 01 03:54:38
  TRACK 180 AUDIO
    TITLE "18:cjc171_08180"
    INDEX 01 03:55:18
  TRACK 181 AUDIO
    TITLE "0:"
    INDEX 01 03:57:58
